<?xml version="1.0" standalone="no"?>
<!DOCTYPE svg PUBLIC "-//W3C//DTD SVG 1.1//EN"
"http://www.w3.org/Graphics/SVG/1.1/DTD/svg11.dtd">

<svg width="682" height="329" view_box="0 0 682 329"
xmlns="http://www.w3.org/2000/svg"
xmlns:link="http://www.w3.org/1999/xlink">\n\n<desc>Généré par Mocodo 2.3.7 le Fri, 01 Apr 2022 02:08:48</desc>

<rect id="frame" x="0" y="0" width="682" height="329" fill="#f5f5f5" stroke="none" stroke-width="0"/>

<!-- Association possede -->
<line x1="220" y1="68" x2="343" y2="177" stroke="#bf812d" stroke-width="2"/>
<text x="286" y="120.525563806" fill="#01665e" font-family="Verdana" font-size="12">0,N</text>
<line x1="220" y1="261" x2="343" y2="177" stroke="#bf812d" stroke-width="2"/>
<text x="266" y="244.780465943" fill="#01665e" font-family="Verdana" font-size="12">1,1</text>
<g id="association-possede">
	<path d="M 361 152 a 14 14 90 0 1 14 14 V 177 h -64 V 166 a 14 14 90 0 1 14 -14" fill="#dfc27d" stroke="#dfc27d" stroke-width="0"/>
	<path d="M 375 177.0 v 11 a 14 14 90 0 1 -14 14 H 325 a 14 14 90 0 1 -14 -14 V 177.0 H 64" fill="#f6e8c3" stroke="#f6e8c3" stroke-width="0"/>
	<rect x="311" y="152" width="64" height="50" fill="none" rx="14" stroke="#bf812d" stroke-width="2"/>
	<line x1="311" y1="177" x2="375" y2="177" stroke="#bf812d" stroke-width="1"/>
	<text x="318" y="169.7" fill="#000000" font-family="Verdana" font-size="12">possede</text>
</g>

<!-- Association remplie -->
<line x1="220" y1="68" x2="343" y2="68" stroke="#bf812d" stroke-width="2"/>
<text x="286" y="60.0" fill="#01665e" font-family="Verdana" font-size="12">1,1</text>
<line x1="450" y1="68" x2="343" y2="68" stroke="#bf812d" stroke-width="2"/>
<text x="378" y="85.0" fill="#01665e" font-family="Verdana" font-size="12">0,N</text>
<g id="association-remplie">
	<path d="M 359 43 a 14 14 90 0 1 14 14 V 68 h -60 V 57 a 14 14 90 0 1 14 -14" fill="#dfc27d" stroke="#dfc27d" stroke-width="0"/>
	<path d="M 373 68.0 v 11 a 14 14 90 0 1 -14 14 H 327 a 14 14 90 0 1 -14 -14 V 68.0 H 60" fill="#f6e8c3" stroke="#f6e8c3" stroke-width="0"/>
	<rect x="313" y="43" width="60" height="50" fill="none" rx="14" stroke="#bf812d" stroke-width="2"/>
	<line x1="313" y1="68" x2="373" y2="68" stroke="#bf812d" stroke-width="1"/>
	<text x="320" y="60.7" fill="#000000" font-family="Verdana" font-size="12">remplie</text>
</g>

<!-- Association est1 -->
<line x1="35" y1="68" x2="110" y2="68" stroke="#bf812d" stroke-width="2"/>
<text x="66" y="85.0" fill="#01665e" font-family="Verdana" font-size="12">0,N</text>
<line x1="220" y1="68" x2="110" y2="68" stroke="#bf812d" stroke-width="2"/>
<text x="133" y="85.0" fill="#01665e" font-family="Verdana" font-size="12">1,1</text>
<g id="association-est1">
	<path d="M 113 43 a 14 14 90 0 1 14 14 V 68 h -34 V 57 a 14 14 90 0 1 14 -14" fill="#dfc27d" stroke="#dfc27d" stroke-width="0"/>
	<path d="M 127 68.0 v 11 a 14 14 90 0 1 -14 14 H 107 a 14 14 90 0 1 -14 -14 V 68.0 H 34" fill="#f6e8c3" stroke="#f6e8c3" stroke-width="0"/>
	<rect x="93" y="43" width="34" height="50" fill="none" rx="14" stroke="#bf812d" stroke-width="2"/>
	<line x1="93" y1="68" x2="127" y2="68" stroke="#bf812d" stroke-width="1"/>
	<text x="100" y="60.7" fill="#000000" font-family="Verdana" font-size="12">est</text>
</g>

<!-- Association est2 -->
<line x1="450" y1="68" x2="544" y2="68" stroke="#bf812d" stroke-width="2"/>
<text x="500" y="85.0" fill="#01665e" font-family="Verdana" font-size="12">1,1</text>
<line x1="633" y1="68" x2="544" y2="68" stroke="#bf812d" stroke-width="2"/>
<text x="566" y="85.0" fill="#01665e" font-family="Verdana" font-size="12">0,N</text>
<g id="association-est2">
	<path d="M 547 43 a 14 14 90 0 1 14 14 V 68 h -34 V 57 a 14 14 90 0 1 14 -14" fill="#dfc27d" stroke="#dfc27d" stroke-width="0"/>
	<path d="M 561 68.0 v 11 a 14 14 90 0 1 -14 14 H 541 a 14 14 90 0 1 -14 -14 V 68.0 H 34" fill="#f6e8c3" stroke="#f6e8c3" stroke-width="0"/>
	<rect x="527" y="43" width="34" height="50" fill="none" rx="14" stroke="#bf812d" stroke-width="2"/>
	<line x1="527" y1="68" x2="561" y2="68" stroke="#bf812d" stroke-width="1"/>
	<text x="534" y="60.7" fill="#000000" font-family="Verdana" font-size="12">est</text>
</g>

<!-- Association est3 -->
<line x1="220" y1="261" x2="343" y2="261" stroke="#bf812d" stroke-width="2"/>
<text x="266" y="278.0" fill="#01665e" font-family="Verdana" font-size="12">1,1</text>
<line x1="450" y1="261" x2="343" y2="261" stroke="#bf812d" stroke-width="2"/>
<text x="396" y="278.0" fill="#01665e" font-family="Verdana" font-size="12">0,N</text>
<g id="association-est3">
	<path d="M 346 236 a 14 14 90 0 1 14 14 V 261 h -34 V 250 a 14 14 90 0 1 14 -14" fill="#dfc27d" stroke="#dfc27d" stroke-width="0"/>
	<path d="M 360 261.0 v 11 a 14 14 90 0 1 -14 14 H 340 a 14 14 90 0 1 -14 -14 V 261.0 H 34" fill="#f6e8c3" stroke="#f6e8c3" stroke-width="0"/>
	<rect x="326" y="236" width="34" height="50" fill="none" rx="14" stroke="#bf812d" stroke-width="2"/>
	<line x1="326" y1="261" x2="360" y2="261" stroke="#bf812d" stroke-width="1"/>
	<text x="333" y="253.7" fill="#000000" font-family="Verdana" font-size="12">est</text>
</g>

<!-- Entity autre_frais -->
<g id="entity-autre_frais">
	<g id="frame-autre_frais">
		<rect x="179" y="202" width="82" height="25" fill="#80cdc1" stroke="#80cdc1" stroke-width="0"/>
		<rect x="179" y="227.0" width="82" height="93" fill="#c7eae5" stroke="#c7eae5" stroke-width="0"/>
		<rect x="179" y="202" width="82" height="118" fill="none" stroke="#35978f" stroke-width="2"/>
		<line x1="179" y1="227" x2="261" y2="227" stroke="#35978f" stroke-width="1"/>
	</g>
	<text x="186" y="219.7" fill="#000000" font-family="Verdana" font-size="12">autre_frais</text>
	<text x="184" y="244.7" fill="#000000" font-family="Verdana" font-size="12">id_at</text>
	<line x1="184" y1="247" x2="215" y2="247" stroke="#000000" stroke-width="1"/>
	<text x="184" y="261.8" fill="#000000" font-family="Verdana" font-size="12">af_date</text>
	<text x="184" y="278.8" fill="#000000" font-family="Verdana" font-size="12">af_libelle</text>
	<text x="184" y="295.8" fill="#000000" font-family="Verdana" font-size="12">af_montant</text>
	<text x="184" y="312.8" fill="#000000" font-family="Verdana" font-size="12">date_ajout</text>
</g>

<!-- Entity etat_af -->
<g id="entity-etat_af">
	<g id="frame-etat_af">
		<rect x="423" y="227" width="54" height="25" fill="#80cdc1" stroke="#80cdc1" stroke-width="0"/>
		<rect x="423" y="252.0" width="54" height="43" fill="#c7eae5" stroke="#c7eae5" stroke-width="0"/>
		<rect x="423" y="227" width="54" height="68" fill="none" stroke="#35978f" stroke-width="2"/>
		<line x1="423" y1="252" x2="477" y2="252" stroke="#35978f" stroke-width="1"/>
	</g>
	<text x="428" y="244.7" fill="#000000" font-family="Verdana" font-size="12">etat_af</text>
	<text x="428" y="269.8" fill="#000000" font-family="Verdana" font-size="12">id_etat</text>
	<line x1="428" y1="272" x2="471" y2="272" stroke="#000000" stroke-width="1"/>
	<text x="428" y="286.8" fill="#000000" font-family="Verdana" font-size="12">libelle</text>
</g>

<!-- Entity agent -->
<g id="entity-agent">
	<g id="frame-agent">
		<rect x="405" y="9" width="90" height="25" fill="#80cdc1" stroke="#80cdc1" stroke-width="0"/>
		<rect x="405" y="34.0" width="90" height="93" fill="#c7eae5" stroke="#c7eae5" stroke-width="0"/>
		<rect x="405" y="9" width="90" height="118" fill="none" stroke="#35978f" stroke-width="2"/>
		<line x1="405" y1="34" x2="495" y2="34" stroke="#35978f" stroke-width="1"/>
	</g>
	<text x="432" y="26.7" fill="#000000" font-family="Verdana" font-size="12">agent</text>
	<text x="410" y="51.7" fill="#000000" font-family="Verdana" font-size="12">ag_matricule</text>
	<line x1="410" y1="54" x2="490" y2="54" stroke="#000000" stroke-width="1"/>
	<text x="410" y="68.8" fill="#000000" font-family="Verdana" font-size="12">ag_nom</text>
	<text x="410" y="85.8" fill="#000000" font-family="Verdana" font-size="12">ag_prenom</text>
	<text x="410" y="102.8" fill="#000000" font-family="Verdana" font-size="12">ag_login</text>
	<text x="410" y="119.8" fill="#000000" font-family="Verdana" font-size="12">ag_passwrd</text>
</g>

<!-- Entity type_agent -->
<g id="entity-type_agent">
	<g id="frame-type_agent">
		<rect x="593" y="34" width="80" height="25" fill="#80cdc1" stroke="#80cdc1" stroke-width="0"/>
		<rect x="593" y="59.0" width="80" height="43" fill="#c7eae5" stroke="#c7eae5" stroke-width="0"/>
		<rect x="593" y="34" width="80" height="68" fill="none" stroke="#35978f" stroke-width="2"/>
		<line x1="593" y1="59" x2="673" y2="59" stroke="#35978f" stroke-width="1"/>
	</g>
	<text x="598" y="51.7" fill="#000000" font-family="Verdana" font-size="12">type_agent</text>
	<text x="598" y="76.8" fill="#000000" font-family="Verdana" font-size="12">visiteur</text>
	<line x1="598" y1="79" x2="644" y2="79" stroke="#000000" stroke-width="1"/>
	<text x="598" y="93.8" fill="#000000" font-family="Verdana" font-size="12">comptable</text>
</g>

<!-- Entity fiche -->
<g id="entity-fiche">
	<g id="frame-fiche">
		<rect x="159" y="9" width="122" height="25" fill="#80cdc1" stroke="#80cdc1" stroke-width="0"/>
		<rect x="159" y="34.0" width="122" height="93" fill="#c7eae5" stroke="#c7eae5" stroke-width="0"/>
		<rect x="159" y="9" width="122" height="118" fill="none" stroke="#35978f" stroke-width="2"/>
		<line x1="159" y1="34" x2="281" y2="34" stroke="#35978f" stroke-width="1"/>
	</g>
	<text x="205" y="26.7" fill="#000000" font-family="Verdana" font-size="12">fiche</text>
	<text x="164" y="51.7" fill="#000000" font-family="Verdana" font-size="12">id_fiche qu_nuitee</text>
	<line x1="164" y1="54" x2="276" y2="54" stroke="#000000" stroke-width="1"/>
	<text x="164" y="68.8" fill="#000000" font-family="Verdana" font-size="12">qu_repas</text>
	<text x="164" y="85.8" fill="#000000" font-family="Verdana" font-size="12">qu_km</text>
	<text x="164" y="102.8" fill="#000000" font-family="Verdana" font-size="12">date</text>
	<text x="164" y="119.8" fill="#000000" font-family="Verdana" font-size="12">fk_matricule</text>
</g>

<!-- Entity etat_ff -->
<g id="entity-etat_ff">
	<g id="frame-etat_ff">
		<rect x="9" y="34" width="52" height="25" fill="#80cdc1" stroke="#80cdc1" stroke-width="0"/>
		<rect x="9" y="59.0" width="52" height="43" fill="#c7eae5" stroke="#c7eae5" stroke-width="0"/>
		<rect x="9" y="34" width="52" height="68" fill="none" stroke="#35978f" stroke-width="2"/>
		<line x1="9" y1="59" x2="61" y2="59" stroke="#35978f" stroke-width="1"/>
	</g>
	<text x="14" y="51.7" fill="#000000" font-family="Verdana" font-size="12">etat_ff</text>
	<text x="14" y="76.8" fill="#000000" font-family="Verdana" font-size="12">id</text>
	<line x1="14" y1="79" x2="26" y2="79" stroke="#000000" stroke-width="1"/>
	<text x="14" y="93.8" fill="#000000" font-family="Verdana" font-size="12">libelle</text>
</g>
</svg>